<svg width="36" height="35" viewBox="0 0 36 35" fill="none" xmlns="http://www.w3.org/2000/svg">
<mask id="path-1-inside-1_8_522" fill="white">
<path fill-rule="evenodd" clip-rule="evenodd" d="M10.7875 13.0319H25.5532C25.4772 6.78476 21.5806 3 18.1703 3C14.7601 3 10.8635 6.78476 10.7875 13.0319ZM7.78734 13.0319H3.79052C1.84118 13.0319 0.409542 14.8619 0.878706 16.754L4.83825 32.722C5.17009 34.0602 6.37132 35 7.75007 35H17.6596H28.2501C29.6289 35 30.8301 34.0602 31.162 32.722L35.1215 16.7539C35.5907 14.8619 34.159 13.0319 32.2097 13.0319H28.5533C28.4751 5.81759 23.8564 0 18.1703 0C12.4842 0 7.86558 5.81759 7.78734 13.0319Z"/>
</mask>
<path fill-rule="evenodd" clip-rule="evenodd" d="M10.7875 13.0319H25.5532C25.4772 6.78476 21.5806 3 18.1703 3C14.7601 3 10.8635 6.78476 10.7875 13.0319ZM7.78734 13.0319H3.79052C1.84118 13.0319 0.409542 14.8619 0.878706 16.754L4.83825 32.722C5.17009 34.0602 6.37132 35 7.75007 35H17.6596H28.2501C29.6289 35 30.8301 34.0602 31.162 32.722L35.1215 16.7539C35.5907 14.8619 34.159 13.0319 32.2097 13.0319H28.5533C28.4751 5.81759 23.8564 0 18.1703 0C12.4842 0 7.86558 5.81759 7.78734 13.0319Z" fill="#ED9999"/>
<path d="M10.7875 13.0319L6.78775 12.9832L6.73848 17.0319H10.7875V13.0319ZM25.5532 13.0319V17.0319H29.6022L29.5529 12.9832L25.5532 13.0319ZM7.78734 13.0319V17.0319H11.7442L11.7871 13.0753L7.78734 13.0319ZM0.878706 16.754L-3.00372 17.7167L0.878706 16.754ZM4.83825 32.722L8.72067 31.7593L8.72067 31.7593L4.83825 32.722ZM31.162 32.722L35.0444 33.6847L31.162 32.722ZM35.1215 16.7539L31.2391 15.7912L31.2391 15.7912L35.1215 16.7539ZM28.5533 13.0319L24.5536 13.0753L24.5965 17.0319H28.5533V13.0319ZM10.7875 17.0319H25.5532V9.03191H10.7875V17.0319ZM29.5529 12.9832C29.4605 5.38877 24.5269 -1 18.1703 -1V7C18.6342 7 21.4939 8.18074 21.5535 13.0806L29.5529 12.9832ZM18.1703 -1C11.8137 -1 6.88018 5.38877 6.78775 12.9832L14.7872 13.0806C14.8468 8.18074 17.7064 7 18.1703 7V-1ZM3.79052 17.0319H7.78734V9.03191H3.79052V17.0319ZM4.76113 15.7912C4.91751 16.4219 4.44031 17.0319 3.79052 17.0319V9.03191C-0.757959 9.03191 -4.09843 13.3019 -3.00372 17.7167L4.76113 15.7912ZM8.72067 31.7593L4.76113 15.7912L-3.00372 17.7167L0.955833 33.6847L8.72067 31.7593ZM7.75007 31C8.20965 31 8.61006 31.3133 8.72067 31.7593L0.955833 33.6847C1.73011 36.8072 4.53299 39 7.75007 39V31ZM17.6596 31H7.75007V39H17.6596V31ZM28.2501 31H17.6596V39H28.2501V31ZM27.2795 31.7593C27.3901 31.3133 27.7906 31 28.2501 31V39C31.4672 39 34.2701 36.8072 35.0444 33.6847L27.2795 31.7593ZM31.2391 15.7912L27.2795 31.7593L35.0444 33.6847L39.0039 17.7167L31.2391 15.7912ZM32.2097 17.0319C31.5599 17.0319 31.0827 16.4219 31.2391 15.7912L39.0039 17.7167C40.0986 13.3019 36.7581 9.03191 32.2097 9.03191V17.0319ZM28.5533 17.0319H32.2097V9.03191H28.5533V17.0319ZM32.5531 12.9885C32.4613 4.52303 26.8831 -4 18.1703 -4V4C20.8298 4 24.4889 7.11215 24.5536 13.0753L32.5531 12.9885ZM18.1703 -4C9.45761 -4 3.87938 4.52303 3.78757 12.9885L11.7871 13.0753C11.8518 7.11215 15.5109 4 18.1703 4V-4Z" fill="#ED9999" mask="url(#path-1-inside-1_8_522)"/>
</svg>
